HIERARCHY
ROOT Hips
{
	OFFSET 0.000000 0.000000 0.000000
	CHANNELS 6 Xposition Yposition Zposition Xrotation Yrotation Zrotation
	JOINT LeftUpLeg_virtual
	{
		OFFSET 0.000000 0.000000 0.000000
		CHANNELS 3 Xrotation Yrotation Zrotation
		JOINT LeftUpLeg
		{
			OFFSET 15.427100 -6.655098 0.678600
			CHANNELS 3 Xrotation Yrotation Zrotation
			JOINT LeftLeg
			{
				OFFSET 4.081073 -39.591068 13.024000
				CHANNELS 3 Xrotation Yrotation Zrotation
				JOINT LeftFoot
				{
					OFFSET -4.081074 -37.707932 -15.979700
					CHANNELS 3 Xrotation Yrotation Zrotation
					JOINT LeftToeBase
					{
						OFFSET 5.346399 -15.068900 20.645000
						CHANNELS 3 Xrotation Yrotation Zrotation
						JOINT LeftToe_End
						{
							OFFSET 2.754700 0.931300 11.300900
							CHANNELS 3 Xrotation Yrotation Zrotation
							End Site
							{
								OFFSET 0 0 0
							}
						}
					}
				}
			}
		}
	}
	JOINT RightUpLeg_virtual
	{
		OFFSET 0.000000 0.000000 0.000000
		CHANNELS 3 Xrotation Yrotation Zrotation
		JOINT RightUpLeg
		{
			OFFSET -15.569500 -6.655098 0.678600
			CHANNELS 3 Xrotation Yrotation Zrotation
			JOINT RightLeg
			{
				OFFSET -4.081825 -39.591045 13.023800
				CHANNELS 3 Xrotation Yrotation Zrotation
				JOINT RightFoot
				{
					OFFSET 4.081824 -37.707954 -15.979600
					CHANNELS 3 Xrotation Yrotation Zrotation
					JOINT RightToeBase
					{
						OFFSET -5.346400 -15.068900 20.645000
						CHANNELS 3 Xrotation Yrotation Zrotation
						JOINT RightToe_End
						{
							OFFSET -2.754700 0.931300 11.300900
							CHANNELS 3 Xrotation Yrotation Zrotation
							End Site
							{
								OFFSET 0 0 0
							}
						}
					}
				}
			}
		}
	}
	JOINT Spine_virtual
	{
		OFFSET 0.000000 0.000000 0.000000
		CHANNELS 3 Xrotation Yrotation Zrotation
		JOINT Spine
		{
			OFFSET -0.279200 12.230698 -2.892100
			CHANNELS 3 Xrotation Yrotation Zrotation
			JOINT Spine1
			{
				OFFSET -0.232667 10.192268 -1.242267
				CHANNELS 3 Xrotation Yrotation Zrotation
				JOINT Spine1_split
				{
					OFFSET -0.232667 10.192268 -1.242267
					CHANNELS 3 Xrotation Yrotation Zrotation
					JOINT Spine2
					{
						OFFSET -0.232667 10.192268 -1.242267
						CHANNELS 3 Xrotation Yrotation Zrotation
						JOINT Neck_virtual
						{
							OFFSET 0.000000 0.000000 0.000000
							CHANNELS 3 Xrotation Yrotation Zrotation
							JOINT Neck
							{
								OFFSET -0.418800 17.814194 8.416900
								CHANNELS 3 Xrotation Yrotation Zrotation
								JOINT Head
								{
									OFFSET 0.000000 7.031097 3.806800
									CHANNELS 3 Xrotation Yrotation Zrotation
									JOINT HeadTop_End
									{
										OFFSET 0.000000 24.646606 12.978600
										CHANNELS 3 Xrotation Yrotation Zrotation
										End Site
										{
											OFFSET 0 0 0
										}
									}
								}
							}
						}
						JOINT LeftShoulder_virtual
						{
							OFFSET 0.000000 0.000000 0.000000
							CHANNELS 3 Xrotation Yrotation Zrotation
							JOINT LeftShoulder
							{
								OFFSET 8.476499 7.247704 -3.868750
								CHANNELS 3 Xrotation Yrotation Zrotation
								JOINT LeftShoulder_split
								{
									OFFSET 8.476499 7.247704 -3.868750
									CHANNELS 3 Xrotation Yrotation Zrotation
									JOINT LeftArm
									{
										OFFSET 9.308998 -2.777710 0.208600
										CHANNELS 3 Xrotation Yrotation Zrotation
										JOINT LeftForeArm
										{
											OFFSET 29.972298 0.000000 0.000000
											CHANNELS 3 Xrotation Yrotation Zrotation
											JOINT LeftHand
											{
												OFFSET 26.026505 0.000000 0.000000
												CHANNELS 3 Xrotation Yrotation Zrotation
												End Site
												{
													OFFSET 0 0 0
												}
											}
										}
									}
								}
							}
						}
						JOINT RightShoulder_virtual
						{
							OFFSET 0.000000 0.000000 0.000000
							CHANNELS 3 Xrotation Yrotation Zrotation
							JOINT RightShoulder
							{
								OFFSET -7.570500 7.247704 -3.868750
								CHANNELS 3 Xrotation Yrotation Zrotation
								JOINT RightShoulder_split
								{
									OFFSET -7.570500 7.247704 -3.868750
									CHANNELS 3 Xrotation Yrotation Zrotation
									JOINT RightArm
									{
										OFFSET -9.308998 -2.777710 0.208500
										CHANNELS 3 Xrotation Yrotation Zrotation
										JOINT RightForeArm
										{
											OFFSET -29.972300 0.000000 0.000000
											CHANNELS 3 Xrotation Yrotation Zrotation
											JOINT RightHand
											{
												OFFSET -26.026505 0.000000 0.000000
												CHANNELS 3 Xrotation Yrotation Zrotation
												End Site
												{
													OFFSET 0 0 0
												}
											}
										}
									}
								}
							}
						}
					}
				}
			}
		}
	}
}
MOTION
Frames: 4
Frame Time: 0.03333333
7.393478 89.663605 -11.285992 0.000000 0.000000 0.000000 3.641078 13.538687 1.491935 -11.624020 11.453952 10.610553 21.223203 0.814123 0.793276 -11.007405 4.584245 -17.511256 0.862145 -4.823552 0.342663 0.000000 0.000000 0.000000 4.062072 13.579603 1.498330 -12.384724 4.030564 -3.371041 23.747540 5.876650 0.087750 -16.208971 -7.417256 11.579612 5.796700 3.419550 -6.519623 0.000000 0.000000 0.000000 3.253683 16.920714 1.047742 -0.927300 -2.693816 0.676252 -0.648779 0.033033 0.503508 0.154973 -0.053005 -0.043105 0.000000 0.000000 0.000000 -0.708821 3.045604 0.446707 3.878513 5.457006 1.173734 -14.526103 -38.234713 -12.592740 0.000000 0.000000 0.000000 -1.867912 1.157518 0.110502 -0.608946 -11.153869 -10.736008 -2.578685 0.513074 -2.623539 23.665851 -21.333005 -63.153821 -0.429544 -21.011561 -0.740635 0.000000 0.000000 0.000000 -0.982978 1.547488 0.627214 -1.551842 0.361573 14.495738 -5.198697 -0.127720 -0.526192 15.113969 29.562234 61.431958 -6.737838 14.036116 3.837533 0.000000 0.000000 0.000000 
7.549954 89.747177 -11.250084 0.000000 0.000000 0.000000 3.611142 13.580042 1.465616 -11.590088 10.926584 10.620017 21.020208 0.887877 0.820571 -11.123926 4.679439 -17.029562 1.022208 -4.829648 0.329599 0.000000 0.000000 0.000000 4.028544 13.225170 1.483613 -12.086415 4.012823 -3.271793 23.523935 5.791142 -0.028655 -15.851732 -7.395933 11.564677 4.730122 3.510698 -6.401376 0.000000 0.000000 0.000000 3.296210 16.783351 0.974240 -0.991994 -2.646113 0.728921 -0.667936 0.088035 0.496905 0.154093 -0.004869 -0.034977 0.000000 0.000000 0.000000 -0.668223 3.083736 0.444655 3.844945 5.460471 1.378067 -14.894025 -37.838589 -12.939527 0.000000 0.000000 0.000000 -1.813923 1.208072 0.128413 -0.607320 -11.134984 -10.864522 -2.610768 0.329559 -2.641129 23.647614 -21.359842 -63.150351 -0.473077 -20.904977 -0.793444 0.000000 0.000000 0.000000 -0.975465 1.595192 0.614507 -1.595850 0.516610 14.498448 -4.736894 0.093604 -0.478739 14.986058 29.608091 61.389044 -6.726412 13.975640 3.843909 0.000000 0.000000 0.000000 
7.683111 89.847412 -11.190594 0.000000 0.000000 0.000000 3.468072 13.464806 1.391721 -11.615788 10.559460 10.653813 20.870767 0.989242 0.859060 -11.192279 4.781926 -16.747457 1.338437 -4.847454 0.352171 0.000000 0.000000 0.000000 4.047349 12.819150 1.376516 -11.717012 3.814066 -3.142804 23.347494 5.674037 -0.158487 -15.849695 -7.067951 11.779772 4.233502 3.657882 -6.614279 0.000000 0.000000 0.000000 3.271092 16.529061 0.822647 -0.942361 -2.513221 0.803910 -0.646349 0.161463 0.487558 0.157259 -0.016289 -0.050576 0.000000 0.000000 0.000000 -0.572751 3.140521 0.432246 3.923335 5.466316 1.698853 -14.974683 -37.173533 -13.188450 0.000000 0.000000 0.000000 -1.737365 1.265371 0.122615 -0.625164 -11.068355 -10.973386 -2.610880 0.291746 -2.562720 23.254965 -21.312128 -63.361821 -0.502726 -20.819574 -0.756344 0.000000 0.000000 0.000000 -0.930527 1.652492 0.590885 -1.634819 0.590513 14.503236 -4.270745 0.214353 -0.384536 14.968872 29.652870 61.110133 -6.676469 13.922533 3.759138 0.000000 0.000000 0.000000 
7.786419 89.839554 -11.175453 0.000000 0.000000 0.000000 3.284412 13.149186 1.311203 -11.646345 10.410305 10.590951 20.983210 1.059747 0.932793 -11.158399 4.892488 -16.707321 1.253914 -4.890867 0.561087 0.000000 0.000000 0.000000 4.092639 12.398670 1.248664 -11.526993 3.414540 -3.103628 23.280220 5.508570 -0.246533 -16.213845 -6.605473 12.109505 4.681940 3.828882 -7.156627 0.000000 0.000000 0.000000 3.208719 16.217101 0.697041 -0.768423 -2.317388 0.849343 -0.562163 0.250115 0.478122 0.158353 -0.083912 -0.067955 0.000000 0.000000 0.000000 -0.422870 3.210813 0.413954 4.093155 5.466414 2.112692 -14.747939 -36.258093 -13.226611 0.000000 0.000000 0.000000 -1.658752 1.335454 0.097597 -0.660809 -10.958199 -11.045075 -2.625265 0.286482 -2.437461 22.585598 -21.269600 -63.643880 -0.548272 -20.806310 -0.663767 0.000000 0.000000 0.000000 -0.847137 1.710437 0.559969 -1.657895 0.606708 14.485624 -3.817804 0.307228 -0.269097 15.012141 29.747093 60.704119 -6.615201 13.886997 3.610348 0.000000 0.000000 0.000000 
